<?xml version="1.0" encoding="UTF-8" standalone="no"?>
<!-- Created with Inkscape (http://www.inkscape.org/) -->

<svg
   version="1.1"
   id="svg1"
   width="1280"
   height="1036"
   viewBox="0 0 1280 1036"
   sodipodi:docname="icon_blanco.svg"
   inkscape:version="1.4 (e7c3feb1, 2024-10-09)"
   xmlns:inkscape="http://www.inkscape.org/namespaces/inkscape"
   xmlns:sodipodi="http://sodipodi.sourceforge.net/DTD/sodipodi-0.dtd"
   xmlns="http://www.w3.org/2000/svg"
   xmlns:svg="http://www.w3.org/2000/svg">
  <defs
     id="defs1" />
  <sodipodi:namedview
     id="namedview1"
     pagecolor="#505050"
     bordercolor="#eeeeee"
     borderopacity="1"
     inkscape:showpageshadow="0"
     inkscape:pageopacity="0"
     inkscape:pagecheckerboard="0"
     inkscape:deskcolor="#505050"
     inkscape:zoom="0.21984159"
     inkscape:cx="386.64203"
     inkscape:cy="179.67483"
     inkscape:window-width="1472"
     inkscape:window-height="830"
     inkscape:window-x="0"
     inkscape:window-y="38"
     inkscape:window-maximized="0"
     inkscape:current-layer="g1" />
  <g
     inkscape:groupmode="layer"
     inkscape:label="Image"
     id="g1">
    <path
       style="fill:#ffffff;stroke-width:4.87318"
       d="m 66.807191,1034.6917 c 0.217682,-8.7565 24.519536,-148.17496 72.519059,-416.05338 7.74087,-43.20083 24.11125,-135.9844 36.37853,-206.18575 12.26727,-70.20133 29.49871,-168.50775 38.29221,-218.45869 8.79302,-49.95096 19.99847,-114.56809 24.90074,-143.593636 l 8.91249,-52.7737356 h 482.6896 c 265.47878,0 482.69108,1.65684777 482.69298,3.681884 0,2.0250483 -4.2657,26.8777896 -9.4839,55.2283326 -5.218,28.350532 -18.3794,102.356485 -29.2471,164.457665 -10.8679,62.10118 -27.1269,154.88476 -36.1314,206.18574 -9.0043,51.30097 -24.3023,138.56172 -33.9946,193.91278 -9.6928,55.35105 -23.0374,130.46157 -29.6545,166.91225 -6.6176,36.4507 -18.4644,104.93382 -26.3263,152.18472 -7.8622,47.25089 -15.2829,88.67222 -16.4898,92.04722 -1.7362,4.8531 -102.88661,6.1364 -483.67259,6.1364 -264.81268,0 -481.435726,-1.6568 -481.385419,-3.6818 z M 689.85418,899.12309 c 24.43537,-25.28677 44.42803,-48.47663 44.42803,-51.533 0,-3.0564 -29.38746,-35.67498 -65.30546,-72.48577 -35.91801,-36.81078 -65.30545,-67.47335 -65.30545,-68.13899 0,-0.66562 9.79629,-0.0898 21.76945,1.27989 27.95557,3.19769 75.83415,-6.39186 103.85261,-20.80047 27.27156,-14.02436 67.29074,-56.51074 81.56216,-86.5904 16.59968,-34.98658 22.22999,-76.66859 15.58624,-115.3859 -9.71939,-56.6408 -21.55564,-73.23418 -136.13963,-190.8522 l -105.73728,-108.53761 27.91736,-28.03609 27.91784,-28.03611 113.55507,116.67713 c 142.66292,146.5847 154.47499,167.49163 154.47499,273.4097 0,66.11409 -19.72758,123.86445 -58.20024,170.37397 -17.89465,21.63276 -18.38807,23.12294 -10.15717,30.6824 13.30296,12.21768 18.18104,9.96721 38.64293,-17.8279 44.60605,-60.59268 61.01272,-111.99362 60.10086,-188.29181 -0.71159,-59.55331 -12.94161,-108.0183 -38.75661,-153.58451 -7.05202,-12.44684 -68.37772,-79.56207 -136.28041,-149.145 L 640.32072,85.786081 590.53957,136.1335 l -49.78066,50.34741 68.28388,69.42063 68.28387,69.42062 -45.56386,2.02239 c -55.46369,2.46176 -86.60134,15.92721 -124.59557,53.88159 -54.57843,54.52091 -70.40122,132.94586 -42.4529,210.41165 8.61114,23.86787 22.676,40.25949 121.22483,141.28039 L 697.42284,847.1981 668.68747,876.67545 639.9521,906.15279 527.80183,791.77248 C 420.11796,681.94696 414.83209,675.65776 395.05808,633.837 375.31115,592.07251 374.3785,588.00161 372.37241,534.81811 c -1.57458,-41.75104 -0.0484,-64.01237 6.25771,-90.04028 8.58452,-35.5498 32.22075,-80.95893 54.48557,-104.67617 11.46908,-12.21734 12.02587,-14.56324 6.11404,-25.77322 -3.57682,-6.78286 -8.14335,-12.33251 -10.14751,-12.33251 -7.59672,0 -43.53359,47.85109 -57.4122,76.44699 -22.58021,46.52445 -31.32535,86.46359 -31.09556,142.01172 0.2854,68.65154 18.59318,125.93406 56.48777,176.73063 20.30467,27.2171 236.77777,247.91379 243.16948,247.91379 2.85699,0 25.1871,-20.68916 49.62247,-45.97597 z M 582.24481,667.80389 c -35.97702,-15.00924 -75.71612,-53.76598 -90.22602,-87.99555 -7.64994,-18.04686 -10.63173,-35.13951 -10.77927,-61.78783 -0.94814,-171.30265 227.09368,-225.15959 301.74847,-71.26448 13.36731,27.55511 15.16828,36.13214 14.94189,71.15254 -0.3096,47.67707 -13.2275,81.26056 -42.41468,110.25513 -51.53715,51.19695 -112.26687,65.09043 -173.27039,39.64019 z"
       id="path1"
       sodipodi:nodetypes="ssssscsssssssssssssssssssscccsssssssscccccsssscccssscsssssssssssssss" />
    <rect
       style="fill:#1a1a1a"
       id="rect1"
       width="0"
       height="23.929443"
       x="361.49411"
       y="536.97668" />
  </g>
</svg>
