<?xml version="1.0" encoding="UTF-8" standalone="no"?>
<!-- Created with Inkscape (http://www.inkscape.org/) -->

<svg
   version="1.1"
   id="svg1"
   width="928.12329"
   height="223.4846"
   viewBox="0 0 928.1233 223.4846"
   sodipodi:docname="logo_blanco.svg"
   inkscape:version="1.4 (e7c3feb1, 2024-10-09)"
   xmlns:inkscape="http://www.inkscape.org/namespaces/inkscape"
   xmlns:sodipodi="http://sodipodi.sourceforge.net/DTD/sodipodi-0.dtd"
   xmlns="http://www.w3.org/2000/svg"
   xmlns:svg="http://www.w3.org/2000/svg">
  <defs
     id="defs1" />
  <sodipodi:namedview
     id="namedview1"
     pagecolor="#505050"
     bordercolor="#eeeeee"
     borderopacity="1"
     inkscape:showpageshadow="0"
     inkscape:pageopacity="0"
     inkscape:pagecheckerboard="0"
     inkscape:deskcolor="#505050"
     inkscape:zoom="0.43961976"
     inkscape:cx="504.98185"
     inkscape:cy="237.70542"
     inkscape:window-width="1472"
     inkscape:window-height="830"
     inkscape:window-x="0"
     inkscape:window-y="38"
     inkscape:window-maximized="0"
     inkscape:current-layer="g1">
    <inkscape:page
       x="0"
       y="0"
       width="928.12329"
       height="223.4846"
       id="page1"
       margin="431.84875 172.7395 387.06442 182.33614"
       bleed="0" />
  </sodipodi:namedview>
  <g
     inkscape:groupmode="layer"
     inkscape:label="Image"
     id="g1"
     transform="translate(-179.13725,-428.64987)">
    <path
       style="fill:#f9f9f9;stroke-width:1.02733"
       d="m 181.36242,649.9779 c 0.0457,-1.86336 5.12088,-31.53117 15.14549,-88.53486 1.61667,-9.193 5.03559,-28.93705 7.59759,-43.87568 2.56201,-14.93862 6.16077,-35.85792 7.99726,-46.48732 1.83648,-10.62941 4.17669,-24.37973 5.20048,-30.55628 l 1.86143,-11.23008 h 100.80905 c 55.44497,0 100.8094,0.35257 100.80983,0.78349 4.4e-4,0.43092 -0.89086,5.71951 -1.98066,11.75241 -1.08981,6.03291 -3.8385,21.78115 -6.10823,34.99608 -2.26972,13.21494 -5.66543,32.959 -7.54602,43.87568 -1.88059,10.91669 -5.07548,29.4855 -7.09976,41.26404 -2.02427,11.77853 -4.81125,27.76181 -6.19328,35.5184 -1.38203,7.7566 -3.85623,22.32959 -5.49823,32.38443 -1.64201,10.05485 -3.19175,18.86915 -3.4439,19.58736 -0.36257,1.03274 -21.48766,1.30582 -101.01435,1.30582 -55.30575,0 -100.54726,-0.35257 -100.5367,-0.78349 z m 130.12254,-28.84857 c 5.10331,-5.38095 9.27875,-10.31568 9.27875,-10.96606 0,-0.65039 -6.13753,-7.59153 -13.63896,-15.42474 -7.50143,-7.83322 -13.63896,-14.35813 -13.63896,-14.49977 0,-0.14164 2.04592,-0.0191 4.54649,0.27236 5.83846,0.68045 15.83789,-1.36017 21.68953,-4.42628 5.69557,-2.98434 14.05353,-12.02531 17.03413,-18.42617 3.46684,-7.44503 4.64274,-16.31483 3.2552,-24.55376 -2.02989,-12.05298 -4.50192,-15.584 -28.4326,-40.61274 l -22.08316,-23.09647 5.83058,-5.96599 5.83058,-5.966 23.71587,24.82853 c 29.79489,31.19276 32.26187,35.6417 32.26187,58.18073 0,14.06887 -4.12012,26.35797 -12.1551,36.25505 -3.73727,4.60338 -3.8403,4.92049 -2.12126,6.52911 2.77834,2.59989 3.79711,2.12099 8.07052,-3.79372 9.31593,-12.89393 12.74244,-23.83188 12.55199,-40.06791 -0.14864,-12.67275 -2.70287,-22.98596 -8.09431,-32.6823 -1.47273,-2.64864 -14.28058,-16.93055 -28.46191,-31.73758 l -25.78423,-26.92187 -10.39671,10.71378 -10.39671,10.71377 14.26104,14.77249 14.26105,14.7725 -9.51601,0.43035 c -11.58353,0.52386 -18.08654,3.38927 -26.02159,11.46584 -11.39861,11.60188 -14.70324,28.29046 -8.86622,44.77494 1.79843,5.07901 4.73583,8.56709 25.31766,30.06403 l 23.28319,24.3184 -6.00135,6.27269 -6.00133,6.27269 -23.42242,-24.33977 c -22.48968,-23.37054 -23.59367,-24.70885 -27.72339,-33.60818 -4.12416,-8.88735 -4.31896,-9.75363 -4.73789,-21.07091 -0.32889,-8.8845 -0.006,-13.62163 1.30688,-19.16029 1.79289,-7.56489 6.7293,-17.22781 11.3793,-22.27476 2.39533,-2.59982 2.51155,-3.09901 1.27689,-5.48446 -0.74706,-1.44337 -1.70073,-2.62432 -2.11925,-2.62432 -1.58666,0 -9.09199,10.18256 -11.99052,16.26768 -4.71579,9.90025 -6.54223,18.39918 -6.49426,30.21964 0.0593,14.60884 3.88312,26.79838 11.79742,37.60773 4.24055,5.79171 49.45068,52.75529 50.78562,52.75529 0.59666,0 5.26026,-4.4026 10.36358,-9.78355 z m -22.47407,-49.224 c -7.51371,-3.19393 -15.81318,-11.44124 -18.84356,-18.72518 -1.59772,-3.84032 -2.22051,-7.47758 -2.2513,-13.14826 -0.19798,-36.45266 47.42821,-47.91326 63.01983,-15.16485 2.79171,5.86363 3.16788,7.6888 3.12062,15.14104 -0.0644,10.14553 -2.76257,17.29198 -8.85828,23.46194 -10.76348,10.89455 -23.44677,13.85104 -36.18731,8.43531 z m 102.77475,75.46092 c 0.31119,-1.86732 1.97472,-11.85687 3.69674,-22.199 1.72203,-10.34212 4.22135,-24.91512 5.55404,-32.38444 1.33267,-7.4693 4.3135,-24.62783 6.62405,-38.13005 2.31054,-13.50222 5.51009,-32.07103 7.1101,-41.26403 1.60002,-9.193 4.77459,-27.52677 7.05462,-40.7417 2.28003,-13.21494 4.9104,-28.37999 5.84528,-33.7001 l 1.69978,-9.67294 340.38764,0.0128 c 187.21321,0.007 340.58441,0.21631 340.82471,0.46495 0.52,0.53762 -0.6328,8.01042 -5.973,38.71656 -2.1982,12.64037 -5.1367,29.56385 -6.5299,37.60772 -1.3932,8.04388 -2.9492,16.97572 -3.458,19.84853 -0.5087,2.87281 -2.5447,14.86027 -4.5243,26.6388 -1.9798,11.77853 -4.7156,27.52677 -6.0797,34.99608 -1.3641,7.46931 -3.8386,21.80726 -5.4989,31.8621 -1.6604,10.05484 -3.5644,21.21964 -4.231,24.81066 l -1.2121,6.52915 H 732.14777 391.21988 Z m 106.44698,-73.01752 c 8.0978,-3.13284 16.36476,-11.71535 19.48236,-20.22599 6.90489,-18.84953 -1.17592,-40.0955 -18.26657,-48.02622 -18.56478,-8.61478 -39.12353,-0.75212 -47.72978,18.25416 -2.6747,5.90689 -3.07804,7.96345 -3.07925,15.70022 -0.001,7.84491 0.37518,9.7072 3.16713,15.66989 1.74267,3.72181 4.65034,8.32488 6.46146,10.22905 10.11871,10.63853 25.70747,13.91463 39.96465,8.39889 z m -21.37857,-16.11549 c -7.41613,-3.98826 -10.62154,-9.56988 -10.58589,-18.43331 0.0483,-11.99893 7.16107,-19.63859 18.25185,-19.60373 14.31075,0.0451 22.16552,14.36458 16.00367,29.17541 -1.66496,4.00198 -3.08713,5.58999 -6.9562,7.76744 -5.61922,3.16239 -12.08098,3.58543 -16.71343,1.09419 z m 504.13647,15.20149 c 3.98248,-2.0042 6.83716,-4.30349 8.32229,-6.70314 2.28104,-3.68564 4.4366,-11.33875 3.80607,-13.51328 -0.1877,-0.64746 -0.61314,-2.46135 -0.94543,-4.03085 -1.43936,-6.7993 -10.57009,-13.60886 -24.92393,-18.58805 -7.51588,-2.60712 -10.0009,-4.57861 -10.0009,-7.9339 0,-3.03685 2.72203,-4.57582 8.09356,-4.57582 3.22234,0 4.82688,0.66336 6.97335,2.88287 1.53342,1.58556 3.00067,3.54255 3.26062,4.34884 0.39816,1.23494 1.70417,1.1661 8.28683,-0.43683 4.29789,-1.04656 8.01587,-2.24011 8.26229,-2.65234 0.24641,-0.41224 -0.60154,-2.80571 -1.8843,-5.31884 -4.72009,-9.24725 -16.69794,-15.33882 -27.82561,-14.15128 -11.07655,1.1821 -21.18716,9.14571 -22.89588,18.03405 -0.84368,4.38884 1.06264,11.14185 4.25152,15.06058 2.72052,3.34305 10.9536,8.11036 18.02395,10.43655 10.93763,3.5986 15.01558,7.59838 12.2295,11.99505 -3.4933,5.51289 -12.25598,4.1792 -18.34724,-2.79248 l -3.72526,-4.26367 -7.5099,1.93372 c -7.00518,1.80375 -7.47032,2.09683 -6.92082,4.3608 1.14607,4.7217 7.46697,12.38686 12.59371,15.27212 9.95624,5.60318 20.57079,5.82179 30.87558,0.6359 z m -433.92108,-9.38004 v -11.49125 h 4.33578 4.33577 l 6.39192,11.49125 6.39191,11.49125 h 8.97303 c 5.06036,0 8.97303,-0.43738 8.97303,-1.00305 0,-0.55168 -3.13829,-6.30432 -6.97398,-12.78366 l -6.974,-11.7806 4.08035,-3.61142 c 5.23439,-4.63285 7.80268,-10.50199 7.80268,-17.83093 0,-7.40226 -2.57628,-13.20515 -7.98985,-17.99657 -5.89345,-5.21618 -11.70006,-6.48478 -29.85178,-6.52191 l -15.1544,-0.031 -0.50515,35.78024 -0.50515,35.78023 8.33492,-6.6e-4 8.33492,-6.3e-4 z m 0.46472,-29.56745 c -0.32125,-1.32347 -0.44358,-4.96672 -0.27184,-8.09611 l 0.31226,-5.68979 5.04878,-0.32895 c 8.09369,-0.52736 11.39793,0.50886 13.21621,4.14462 1.8463,3.69179 1.27643,7.31798 -1.62084,10.31381 -1.60531,1.65991 -3.37223,2.06274 -9.0477,2.06274 -6.51993,0 -7.09693,-0.18182 -7.63687,-2.40632 z m 96.52345,37.83054 c 9.91736,-4.82935 15.10715,-10.78161 18.52461,-21.24626 4.23367,-12.964 -0.1319,-29.32592 -10.19364,-38.20512 -8.18816,-7.22584 -18.69317,-9.62644 -40.15521,-9.17628 l -14.14411,0.29668 -0.26592,35.85672 -0.26593,35.85674 20.4718,-0.33832 c 19.57671,-0.32354 20.71473,-0.45663 26.0284,-3.04416 z m -28.54079,-13.0225 c -0.41675,-0.44666 -0.75772,-9.43053 -0.75772,-19.96419 v -19.15208 h 8.1148 c 12.95245,0 19.93441,4.2799 22.70192,13.9161 1.12724,3.92497 1.22991,6.23192 0.43958,9.87846 -2.38407,11.00011 -7.57963,14.86373 -21.02396,15.63424 -4.7943,0.27475 -9.05787,0.13413 -9.47462,-0.31253 z m 110.37456,8.41572 v -7.83494 H 708.71639 691.5414 v -6.26795 -6.26796 h 13.13382 13.13381 v -7.83494 -7.83495 H 704.67522 691.5414 v -5.74562 -5.74563 h 16.66985 16.66983 v -8.37552 -8.37552 l -25.00476,0.27942 -25.00476,0.27941 -0.26584,35.77957 -0.26583,35.77957 h 25.77574 25.77575 z m 30.81395,-3.96535 v -11.27796 l 4.50905,0.30904 4.50903,0.30905 6.0052,11.23008 6.00517,11.23008 h 9.49869 c 5.22428,0 9.31524,-0.35257 9.09096,-0.78349 -0.22438,-0.43092 -3.43359,-6.0223 -7.13173,-12.42526 -3.69815,-6.40298 -6.72389,-12.08222 -6.72389,-12.62055 0,-0.53833 1.12292,-1.6002 2.49538,-2.3597 4.83979,-2.67827 8.02366,-8.99807 8.44834,-16.7694 0.49113,-8.98784 -0.85375,-13.13328 -6.00672,-18.5148 -6.14222,-6.41464 -10.70802,-7.66346 -30.44691,-8.32772 l -16.92242,-0.56948 v 36.22746 36.22744 l 8.33492,-0.30342 8.33493,-0.30341 z m 0.50514,-35.32354 v -8.47146 l 7.68685,0.40137 c 6.57534,0.34334 7.96316,0.75422 9.59779,2.84156 2.66985,3.40929 2.43375,8.03105 -0.56888,11.13581 -2.16358,2.23719 -3.38748,2.56417 -9.59778,2.56417 h -7.11798 z m 101.0294,39.31415 v -7.80969 l -16.92242,-0.28641 -16.92242,-0.28643 -0.30298,-6.00679 -0.30309,-6.00679 h 13.18433 13.18423 l 0.12628,-5.22329 c 0.0697,-2.87282 0.1263,-5.92845 0.1263,-6.79029 0,-0.86184 -0.0566,-2.02305 -0.1263,-2.58043 -0.0717,-0.57754 -5.66693,-1.13921 -13.00752,-1.30583 l -12.88125,-0.29238 -0.3054,-5.48445 -0.30542,-5.48447 h 17.27036 17.27026 l -0.2951,-8.0961 -0.29501,-8.09611 h -24.75219 -24.75218 l -0.26592,35.77957 -0.26581,35.77957 h 25.27058 25.27067 z m 27.09465,2.32522 1.97856,-5.48445 h 13.49904 13.49903 l 2.02058,5.47284 2.0206,5.47284 8.84007,0.0116 c 4.86203,0.006 8.84006,-0.42787 8.84006,-0.96503 0,-0.53716 -0.43129,-2.06498 -0.95826,-3.39514 -0.52707,-1.33016 -6.62359,-16.99147 -13.54804,-34.8029 l -12.58977,-32.38443 h -7.88504 -7.88513 l -4.9466,12.53591 c -2.72062,6.89475 -5.34395,13.4761 -5.8296,14.62522 -0.48565,1.14913 -4.34537,11.02116 -8.57709,21.93785 -4.23181,10.91668 -7.92433,20.43613 -8.2057,21.15433 -0.38674,0.98736 1.71517,1.30583 8.61861,1.30583 h 9.13012 z m 8.26561,-21.99905 c 0,-1.10858 2.57444,-9.02305 6.69138,-20.5708 0.31814,-0.89236 1.98139,2.48077 3.86326,7.83494 5.55581,15.80648 5.90729,14.10289 -2.90944,14.10289 -5.62521,0 -7.6452,-0.36118 -7.6452,-1.36703 z M 1054.2367,567.711 v -7.83494 h -17.175 -17.175 v -6.26795 -6.26796 h 13.1338 13.1339 v -7.83494 -7.83495 h -13.1339 -13.1338 v -5.74562 -5.74563 h 16.6699 c 10.3555,0 16.7176,-0.39571 16.7961,-1.04465 0.069,-0.57457 0.1263,-1.74981 0.1263,-2.61165 0,-0.86185 -0.056,-4.16074 -0.1263,-7.33087 l -0.1263,-5.76387 -25.0047,0.27942 -25.0047,0.27941 -0.2659,35.77957 -0.2658,35.77957 h 25.7757 25.7757 z"
       id="path1" />
  </g>
</svg>
